HIERARCHY
ROOT Hips
{
	OFFSET 0.000000 83.214638 0.000000
	CHANNELS 6 Xposition Yposition Zposition Xrotation Yrotation Zrotation
	JOINT Pelvis
	{
		OFFSET 0.000000 0.000000 0.000000
		CHANNELS 3 Xrotation Yrotation Zrotation
		JOINT LeftUpLeg
		{
			OFFSET 8.479700 -4.795502 -0.379100
			CHANNELS 3 Xrotation Yrotation Zrotation
			JOINT LeftLeg
			{
				OFFSET 0.024144 -32.555107 0.112900
				CHANNELS 3 Xrotation Yrotation Zrotation
				JOINT LeftFoot
				{
					OFFSET -0.024144 -32.638630 -3.012600
					CHANNELS 3 Xrotation Yrotation Zrotation
					JOINT LeftToeBase
					{
						OFFSET 0.970200 -13.225400 11.864200
						CHANNELS 3 Xrotation Yrotation Zrotation
						End Site
						{
							OFFSET 0.000000 12.319262 0.000000
						}
					}
					JOINT LFootTongue
					{
						OFFSET 1.142400 -1.059800 6.665200
						CHANNELS 3 Xrotation Yrotation Zrotation
						End Site
						{
							OFFSET 0.000000 12.319262 0.000000
						}
					}
				}
				JOINT LeftPantLeg
				{
					OFFSET 0.918482 -16.533964 -2.284700
					CHANNELS 3 Xrotation Yrotation Zrotation
					End Site
					{
						OFFSET 0.350399 24.744368 0.000000
					}
				}
			}
		}
		JOINT RightUpLeg
		{
			OFFSET -8.479700 -4.795502 -0.379100
			CHANNELS 3 Xrotation Yrotation Zrotation
			JOINT RightLeg
			{
				OFFSET -0.023144 -32.555092 0.112900
				CHANNELS 3 Xrotation Yrotation Zrotation
				JOINT RightFoot
				{
					OFFSET 0.023144 -32.638641 -3.012700
					CHANNELS 3 Xrotation Yrotation Zrotation
					JOINT RightToeBase
					{
						OFFSET -0.970200 -13.225400 11.864200
						CHANNELS 3 Xrotation Yrotation Zrotation
						End Site
						{
							OFFSET 0.000000 12.319244 0.000000
						}
					}
					JOINT RFootTongue
					{
						OFFSET -1.142200 -1.059800 6.665200
						CHANNELS 3 Xrotation Yrotation Zrotation
						End Site
						{
							OFFSET 0.000000 12.319243 0.000000
						}
					}
				}
				JOINT RightPantLeg
				{
					OFFSET -0.919482 -16.533978 -2.284800
					CHANNELS 3 Xrotation Yrotation Zrotation
					End Site
					{
						OFFSET -0.350400 24.744419 0.000000
					}
				}
			}
		}
	}
	JOINT Spine
	{
		OFFSET 0.000000 7.722000 1.166200
		CHANNELS 3 Xrotation Yrotation Zrotation
		JOINT Spine1
		{
			OFFSET 0.000000 12.024101 0.248800
			CHANNELS 3 Xrotation Yrotation Zrotation
			JOINT Spine2
			{
				OFFSET 0.000000 11.502998 -0.491200
				CHANNELS 3 Xrotation Yrotation Zrotation
				JOINT Neck
				{
					OFFSET 0.000000 18.430702 -3.123100
					CHANNELS 3 Xrotation Yrotation Zrotation
					JOINT Head
					{
						OFFSET 0.000000 9.051102 1.034000
						CHANNELS 3 Xrotation Yrotation Zrotation
						JOINT HairB
						{
							OFFSET 0.208400 24.786102 24.822300
							CHANNELS 3 Xrotation Yrotation Zrotation
							End Site
							{
								OFFSET 0.000000 32.263779 0.000000
							}
						}
						JOINT HairA
						{
							OFFSET -7.081100 24.428299 23.196600
							CHANNELS 3 Xrotation Yrotation Zrotation
							End Site
							{
								OFFSET 0.000000 32.263779 0.000000
							}
						}
						JOINT Hat
						{
							OFFSET 16.728800 15.048294 -15.439601
							CHANNELS 3 Xrotation Yrotation Zrotation
							End Site
							{
								OFFSET 0.000000 32.263779 0.000000
							}
						}
					}
				}
				JOINT LeftShoulder
				{
					OFFSET 6.197800 13.665199 -4.064700
					CHANNELS 3 Xrotation Yrotation Zrotation
					JOINT LeftArm
					{
						OFFSET 7.778100 -0.187103 -1.709300
						CHANNELS 3 Xrotation Yrotation Zrotation
						JOINT LeftForeArm
						{
							OFFSET 22.049376 0.000000 0.000000
							CHANNELS 3 Xrotation Yrotation Zrotation
							JOINT LeftHand
							{
								OFFSET 23.009392 0.000000 0.000000
								CHANNELS 3 Xrotation Yrotation Zrotation
								JOINT LeftHandThumb1
								{
									OFFSET 3.507191 -2.063065 3.133727
									CHANNELS 3 Xrotation Yrotation Zrotation
									JOINT LeftHandThumb2
									{
										OFFSET 3.101337 -1.790558 1.790558
										CHANNELS 3 Xrotation Yrotation Zrotation
										JOINT LeftHandThumb3
										{
											OFFSET 3.058640 -1.765907 1.765906
											CHANNELS 3 Xrotation Yrotation Zrotation
											End Site
											{
												OFFSET -0.415260 3.926476 -0.049563
											}
										}
									}
								}
								JOINT LeftHandIndex1
								{
									OFFSET 11.334419 -0.901459 3.706815
									CHANNELS 3 Xrotation Yrotation Zrotation
									JOINT LeftHandIndex2
									{
										OFFSET 3.283112 0.000000 0.000000
										CHANNELS 3 Xrotation Yrotation Zrotation
										JOINT LeftHandIndex3
										{
											OFFSET 3.323853 0.000000 0.000000
											CHANNELS 3 Xrotation Yrotation Zrotation
											End Site
											{
												OFFSET -1.135597 3.097809 0.402452
											}
										}
									}
								}
								JOINT LeftHandMiddle1
								{
									OFFSET 11.335861 0.000000 0.000000
									CHANNELS 3 Xrotation Yrotation Zrotation
									JOINT LeftHandMiddle2
									{
										OFFSET 3.410492 0.000000 0.000000
										CHANNELS 3 Xrotation Yrotation Zrotation
										JOINT LeftHandMiddle3
										{
											OFFSET 3.312172 0.000000 0.000000
											CHANNELS 3 Xrotation Yrotation Zrotation
											End Site
											{
												OFFSET -1.150200 3.080154 0.400270
											}
										}
									}
								}
								JOINT LeftHandRing1
								{
									OFFSET 11.514786 -0.013176 -3.003090
									CHANNELS 3 Xrotation Yrotation Zrotation
									JOINT LeftHandRing2
									{
										OFFSET 3.053307 0.000000 0.000000
										CHANNELS 3 Xrotation Yrotation Zrotation
										JOINT LeftHandRing3
										{
											OFFSET 3.295807 0.000000 0.000000
											CHANNELS 3 Xrotation Yrotation Zrotation
											End Site
											{
												OFFSET -1.281006 3.013344 0.375733
											}
										}
									}
								}
								JOINT LeftHandPinky1
								{
									OFFSET 10.518692 -0.960396 -5.730441
									CHANNELS 3 Xrotation Yrotation Zrotation
									JOINT LeftHandPinky2
									{
										OFFSET 2.861649 0.000000 0.000000
										CHANNELS 3 Xrotation Yrotation Zrotation
										JOINT LeftHandPinky3
										{
											OFFSET 2.863380 0.000000 0.000000
											CHANNELS 3 Xrotation Yrotation Zrotation
											End Site
											{
												OFFSET -0.843597 2.711159 0.369971
											}
										}
									}
								}
							}
							JOINT LSleeve
							{
								OFFSET 6.676277 -0.344902 -1.011730
								CHANNELS 3 Xrotation Yrotation Zrotation
								End Site
								{
									OFFSET 0.000000 14.885353 0.000000
								}
							}
						}
					}
				}
				JOINT RightShoulder
				{
					OFFSET -6.197800 13.665199 -4.064700
					CHANNELS 3 Xrotation Yrotation Zrotation
					JOINT RightArm
					{
						OFFSET -7.778100 -0.187103 -1.709300
						CHANNELS 3 Xrotation Yrotation Zrotation
						JOINT RightForeArm
						{
							OFFSET -22.049376 0.000000 0.000000
							CHANNELS 3 Xrotation Yrotation Zrotation
							JOINT RightHand
							{
								OFFSET -23.009392 0.000000 0.000000
								CHANNELS 3 Xrotation Yrotation Zrotation
								JOINT RightHandThumb1
								{
									OFFSET -3.507191 -2.063065 3.133727
									CHANNELS 3 Xrotation Yrotation Zrotation
									JOINT RightHandThumb2
									{
										OFFSET -3.101337 -1.790558 1.790558
										CHANNELS 3 Xrotation Yrotation Zrotation
										JOINT RightHandThumb3
										{
											OFFSET -3.058640 -1.765907 1.765906
											CHANNELS 3 Xrotation Yrotation Zrotation
											End Site
											{
												OFFSET 0.415260 3.926476 -0.049563
											}
										}
									}
								}
								JOINT RightHandIndex1
								{
									OFFSET -11.334419 -0.901459 3.706815
									CHANNELS 3 Xrotation Yrotation Zrotation
									JOINT RightHandIndex2
									{
										OFFSET -3.283112 0.000000 0.000000
										CHANNELS 3 Xrotation Yrotation Zrotation
										JOINT RightHandIndex3
										{
											OFFSET -3.323853 0.000000 0.000000
											CHANNELS 3 Xrotation Yrotation Zrotation
											End Site
											{
												OFFSET 1.135597 3.097809 0.402452
											}
										}
									}
								}
								JOINT RightHandMiddle1
								{
									OFFSET -11.335861 0.000000 0.000000
									CHANNELS 3 Xrotation Yrotation Zrotation
									JOINT RightHandMiddle2
									{
										OFFSET -3.410492 0.000000 0.000000
										CHANNELS 3 Xrotation Yrotation Zrotation
										JOINT RightHandMiddle3
										{
											OFFSET -3.312172 0.000000 0.000000
											CHANNELS 3 Xrotation Yrotation Zrotation
											End Site
											{
												OFFSET 1.150200 3.080154 0.400270
											}
										}
									}
								}
								JOINT RightHandRing1
								{
									OFFSET -11.514786 -0.013176 -3.003090
									CHANNELS 3 Xrotation Yrotation Zrotation
									JOINT RightHandRing2
									{
										OFFSET -3.053307 0.000000 0.000000
										CHANNELS 3 Xrotation Yrotation Zrotation
										JOINT RightHandRing3
										{
											OFFSET -3.295807 0.000000 0.000000
											CHANNELS 3 Xrotation Yrotation Zrotation
											End Site
											{
												OFFSET 1.281006 3.013344 0.375733
											}
										}
									}
								}
								JOINT RightHandPinky1
								{
									OFFSET -10.518692 -0.960396 -5.730441
									CHANNELS 3 Xrotation Yrotation Zrotation
									JOINT RightHandPinky2
									{
										OFFSET -2.861649 0.000000 0.000000
										CHANNELS 3 Xrotation Yrotation Zrotation
										JOINT RightHandPinky3
										{
											OFFSET -2.863380 0.000000 0.000000
											CHANNELS 3 Xrotation Yrotation Zrotation
											End Site
											{
												OFFSET 0.843597 2.711159 0.369971
											}
										}
									}
								}
							}
							JOINT RSleeve
							{
								OFFSET -6.676277 -0.344902 -1.011730
								CHANNELS 3 Xrotation Yrotation Zrotation
								End Site
								{
									OFFSET 0.000000 14.885353 0.000000
								}
							}
						}
					}
				}
				JOINT Backpack
				{
					OFFSET 0.000000 -2.471497 36.677502
					CHANNELS 3 Xrotation Yrotation Zrotation
					End Site
					{
						OFFSET 0.000000 20.427315 0.000000
					}
				}
				JOINT Hood
				{
					OFFSET 0.000000 18.754097 -10.431000
					CHANNELS 3 Xrotation Yrotation Zrotation
					JOINT Hood1
					{
						OFFSET 0.000000 -5.011002 -7.685901
						CHANNELS 3 Xrotation Yrotation Zrotation
						End Site
						{
							OFFSET 0.000000 9.175140 0.000000
						}
					}
				}
				JOINT LHoodieString
				{
					OFFSET 5.250500 16.397697 3.089900
					CHANNELS 3 Xrotation Yrotation Zrotation
					JOINT LHoodieString1
					{
						OFFSET 0.257700 -6.364304 3.694600
						CHANNELS 3 Xrotation Yrotation Zrotation
						JOINT LHoodieString2
						{
							OFFSET 0.000000 -9.643799 2.679100
							CHANNELS 3 Xrotation Yrotation Zrotation
							End Site
							{
								OFFSET 0.000000 10.009018 0.000000
							}
						}
					}
				}
				JOINT RHoodieString
				{
					OFFSET -5.250500 16.397697 3.089900
					CHANNELS 3 Xrotation Yrotation Zrotation
					JOINT RHoodieString1
					{
						OFFSET -0.257700 -6.364304 3.694600
						CHANNELS 3 Xrotation Yrotation Zrotation
						JOINT RHoodieString2
						{
							OFFSET 0.000000 -9.643799 2.679100
							CHANNELS 3 Xrotation Yrotation Zrotation
							End Site
							{
								OFFSET 0.000000 10.009018 0.000000
							}
						}
					}
				}
			}
			JOINT LBackpack_Strap
			{
				OFFSET 15.223200 -7.719803 -6.610900
				CHANNELS 3 Xrotation Yrotation Zrotation
				End Site
				{
					OFFSET 0.000000 16.040596 0.000000
				}
			}
			JOINT RBackpack_Strap
			{
				OFFSET -15.223000 -7.719803 -6.610900
				CHANNELS 3 Xrotation Yrotation Zrotation
				End Site
				{
					OFFSET 0.000000 16.040596 0.000000
				}
			}
		}
	}
	JOINT BoyFacialAnim_Joint
	{
		OFFSET 1.000000 -82.208099 -1.550900
		CHANNELS 3 Xrotation Yrotation Zrotation
		End Site
		{
			OFFSET 0.000000 30.012791 0.000000
		}
	}
}
MOTION
Frames: 5
Frame Time: 0.016667
0.226736 71.046913 -0.344743 8.132300 -10.928343 3.204893 -0.000000 0.000001 -0.000000 -54.148169 4.655792 20.460178 48.884822 3.126663 5.976721 -0.284797 1.114119 -18.382225 0.000000 -0.000000 -0.000000 0.000000 -0.000000 -0.000000 -0.000000 0.000000 0.000000 -35.322549 1.488674 -28.723493 52.615273 -0.830172 -1.433546 -19.529939 -5.512720 24.331343 0.000000 0.000003 -0.000000 0.000000 0.000003 -0.000000 0.000000 -0.000002 -0.000001 8.209380 1.680320 -1.586463 6.501513 1.669132 -0.600553 6.503121 1.665275 -0.587176 -1.740207 -0.081395 0.346735 -18.113902 -0.499811 1.304437 0.000002 0.000000 -0.000000 0.000002 0.000000 -0.000000 0.000002 0.000000 -0.000000 2.609673 -14.773709 -9.661127 -25.061861 -6.032406 -45.945002 0.000049 -124.725743 0.000057 -67.570337 18.900137 22.799783 39.578720 -17.197329 -21.086442 11.236025 23.988454 2.901720 0.000002 0.000001 0.000001 3.600025 6.051871 -61.463486 4.128145 6.308925 -66.366175 -0.000002 -0.000001 -0.000007 2.451413 5.271010 -49.859937 3.793772 6.152661 -63.285931 -0.000000 0.000000 -0.000002 2.452894 5.272241 -49.876056 3.792019 6.151809 -63.269791 0.000002 0.000001 0.000001 7.187300 7.991495 -61.391782 4.144316 2.228362 -66.583198 -0.000000 0.000001 0.000002 0.000000 -0.000000 0.000003 1.602766 8.845880 9.965476 3.934439 4.254982 41.144380 -0.003327 89.361865 0.003680 32.702061 19.603372 -22.590441 29.376446 16.962623 20.541347 9.559550 -25.704461 -5.659318 -0.000000 0.000001 0.000000 2.155498 -5.036571 46.317152 4.033414 -6.310002 65.142902 -0.000001 0.000001 0.000002 1.448239 -4.252515 37.599700 3.476839 -6.022588 59.964778 0.000002 0.000002 0.000002 1.448245 -4.252500 37.599710 3.476825 -6.022602 59.964792 -0.000002 -0.000001 -0.000001 2.155511 -5.036551 46.317149 4.033390 -6.309990 65.142902 -0.000001 -0.000002 0.000002 0.000002 0.000001 -0.000002 -0.000001 0.000000 -0.000000 -0.000001 0.000000 -0.000000 -0.000001 0.000000 -0.000000 -0.000001 0.000000 -0.000000 -0.000001 0.000000 -0.000000 -0.000001 0.000000 0.000000 -0.000001 0.000000 -0.000000 -0.000001 0.000000 -0.000000 -0.000001 0.000000 0.000000 0.000000 0.000000 -0.000000 0.000000 0.000000 -0.000000 -0.000000 0.000001 -0.000000 
0.285491 71.092827 -0.289784 8.158660 -10.909640 3.134602 -0.000000 0.000000 -0.000000 -54.160637 4.707082 20.429941 48.873958 3.139255 6.055821 -0.329827 1.117755 -18.345991 0.000000 0.000001 0.000000 0.000000 0.000001 0.000000 0.000000 -0.000000 -0.000000 -35.167063 1.424778 -28.710680 52.336970 -0.878795 -1.392804 -19.374731 -5.493688 24.395650 0.000000 -0.000000 0.000000 0.000000 -0.000000 0.000000 0.000000 -0.000002 -0.000002 8.186193 1.672511 -1.610120 6.485265 1.665929 -0.610208 6.486868 1.662228 -0.596724 -1.712118 -0.092268 0.384981 -18.110404 -0.529393 1.344543 -0.000000 0.000000 0.000000 -0.000000 0.000000 0.000000 -0.000000 0.000000 0.000000 2.607220 -14.764982 -9.614779 -25.050250 -6.005732 -46.040871 -0.000003 -124.877004 0.000002 -67.329669 18.877815 22.729319 39.578720 -17.197329 -21.086442 11.236030 23.988454 2.901727 -0.000003 0.000002 -0.000002 3.600022 6.051870 -61.463479 4.128145 6.308921 -66.366175 -0.000003 0.000001 -0.000005 2.451414 5.271009 -49.859937 3.793776 6.152662 -63.285937 -0.000001 0.000001 0.000000 2.452894 5.272239 -49.876063 3.792019 6.151809 -63.269791 0.000000 -0.000003 0.000001 7.187299 7.991493 -61.391789 4.144314 2.228368 -66.583198 0.000001 -0.000001 0.000001 -0.000000 -0.000003 0.000000 1.606108 8.884876 9.946591 4.076247 4.257995 41.187653 -0.003804 89.427134 0.004184 32.911881 19.509607 -22.720517 29.376446 16.962621 20.541348 9.559549 -25.704464 -5.659314 -0.000001 -0.000001 0.000002 2.155501 -5.036566 46.317152 4.033413 -6.309999 65.142909 -0.000002 -0.000000 0.000003 1.448245 -4.252516 37.599700 3.476836 -6.022588 59.964778 -0.000001 -0.000001 -0.000000 1.448251 -4.252500 37.599706 3.476823 -6.022604 59.964799 -0.000003 -0.000004 0.000003 2.155516 -5.036548 46.317152 4.033389 -6.309990 65.142902 0.000003 0.000000 -0.000001 -0.000001 0.000002 -0.000003 0.000000 0.000000 -0.000000 0.000000 0.000000 -0.000000 0.000000 0.000000 -0.000000 0.000000 0.000000 -0.000000 0.000000 0.000000 0.000000 0.000000 0.000000 -0.000000 0.000000 0.000000 -0.000000 0.000000 0.000000 0.000000 0.000000 0.000000 -0.000000 0.000001 0.000001 0.000000 0.000001 0.000001 0.000000 -0.000000 0.000000 -0.000000 
0.340867 71.121300 -0.243258 8.217454 -10.914539 3.057036 -0.000000 -0.000001 -0.000000 -54.224527 4.690063 20.436419 48.920236 3.195302 6.089064 -0.381152 1.122887 -18.313870 0.000000 0.000001 -0.000000 0.000000 0.000001 0.000000 -0.000000 0.000000 0.000000 -35.116598 1.326807 -28.681703 52.115730 -0.855219 -1.394696 -19.234779 -5.476519 24.452624 0.000000 -0.000002 0.000000 0.000000 -0.000002 0.000000 0.000002 0.000001 0.000000 8.163423 1.669228 -1.639105 6.469515 1.666600 -0.622083 6.471178 1.662708 -0.608366 -1.660625 -0.094398 0.408575 -18.088767 -0.528533 1.378603 -0.000001 -0.000000 0.000000 -0.000001 -0.000000 0.000000 -0.000001 -0.000000 0.000000 2.606484 -14.776930 -9.549424 -25.079259 -5.936115 -46.237454 -0.000006 -124.947628 -0.000003 -67.140418 18.934350 22.684786 39.578723 -17.197330 -21.086442 11.236026 23.988453 2.901714 -0.000002 -0.000001 -0.000001 3.600021 6.051870 -61.463486 4.128144 6.308923 -66.366175 0.000001 -0.000003 -0.000004 2.451412 5.271009 -49.859937 3.793774 6.152668 -63.285937 -0.000001 -0.000000 -0.000002 2.452892 5.272240 -49.876056 3.792019 6.151811 -63.269791 -0.000001 0.000003 0.000000 7.187305 7.991495 -61.391789 4.144316 2.228366 -66.583198 0.000002 -0.000001 -0.000004 -0.000003 0.000000 0.000003 1.612933 8.972300 9.892407 4.280584 4.276497 41.166612 0.001182 89.494316 -0.001451 33.037543 19.369474 -22.853915 29.376446 16.962623 20.541345 9.559551 -25.704464 -5.659317 -0.000001 -0.000002 0.000002 2.155496 -5.036568 46.317149 4.033410 -6.310001 65.142902 0.000001 -0.000002 -0.000002 1.448241 -4.252522 37.599700 3.476839 -6.022588 59.964785 0.000001 0.000001 -0.000002 1.448245 -4.252504 37.599710 3.476823 -6.022602 59.964799 -0.000003 -0.000003 -0.000002 2.155512 -5.036549 46.317149 4.033390 -6.309993 65.142895 -0.000001 0.000000 -0.000001 0.000001 0.000001 -0.000000 -0.000002 -0.000000 0.000000 -0.000002 -0.000000 0.000000 -0.000002 -0.000000 0.000000 -0.000002 -0.000000 0.000000 -0.000002 -0.000000 0.000000 -0.000002 0.000000 0.000000 -0.000002 -0.000000 0.000000 -0.000002 -0.000000 0.000000 -0.000002 0.000000 0.000000 0.000002 -0.000000 0.000000 0.000002 -0.000000 0.000000 -0.000000 -0.000001 -0.000000 
0.391464 71.137199 -0.202053 8.265566 -10.944721 3.009295 0.000000 0.000000 0.000000 -54.250567 4.608919 20.446789 48.994146 3.288427 6.047499 -0.451080 1.130577 -18.292162 -0.000000 -0.000000 -0.000000 -0.000000 -0.000000 -0.000000 -0.000000 0.000000 0.000002 -35.089595 1.278216 -28.667926 51.953882 -0.816865 -1.400136 -19.121775 -5.464330 24.506288 0.000000 -0.000005 -0.000000 0.000000 -0.000005 -0.000000 0.000003 -0.000001 -0.000001 8.141915 1.669347 -1.670016 6.454652 1.669949 -0.635075 6.456426 1.665763 -0.621081 -1.598637 -0.092581 0.422500 -18.056066 -0.517751 1.411532 0.000002 -0.000000 -0.000000 0.000002 -0.000000 -0.000000 0.000002 -0.000000 -0.000000 2.606933 -14.801046 -9.475212 -25.130219 -5.847825 -46.486411 0.000024 -124.971247 0.000018 -66.982012 19.038362 22.658739 39.578720 -17.197329 -21.086445 11.236028 23.988454 2.901712 -0.000001 0.000001 -0.000002 3.600023 6.051870 -61.463486 4.128146 6.308922 -66.366175 -0.000001 -0.000004 -0.000001 2.451417 5.271009 -49.859937 3.793773 6.152668 -63.285937 0.000001 0.000001 0.000007 2.452891 5.272240 -49.876063 3.792022 6.151810 -63.269791 0.000002 -0.000001 -0.000000 7.187301 7.991494 -61.391789 4.144316 2.228365 -66.583198 -0.000001 -0.000001 0.000003 0.000001 0.000001 0.000001 1.621833 9.085368 9.820734 4.518113 4.299210 41.105205 -0.000192 89.563041 -0.000224 33.107218 19.210752 -22.984632 29.376446 16.962623 20.541343 9.559549 -25.704457 -5.659318 0.000000 -0.000001 0.000002 2.155495 -5.036566 46.317149 4.033410 -6.310003 65.142909 -0.000000 -0.000002 0.000001 1.448240 -4.252514 37.599700 3.476842 -6.022589 59.964778 -0.000000 0.000002 -0.000001 1.448244 -4.252498 37.599710 3.476825 -6.022600 59.964792 -0.000003 -0.000004 -0.000000 2.155512 -5.036547 46.317149 4.033391 -6.309986 65.142902 -0.000001 -0.000000 -0.000002 0.000001 0.000001 0.000001 -0.000000 -0.000001 0.000000 -0.000000 -0.000001 0.000000 -0.000000 -0.000001 0.000000 -0.000000 -0.000001 0.000000 -0.000000 -0.000001 0.000000 -0.000002 -0.000000 0.000000 -0.000000 -0.000001 0.000000 -0.000000 -0.000001 0.000000 -0.000002 -0.000000 0.000000 -0.000001 0.000000 0.000000 -0.000001 0.000000 0.000000 0.000000 0.000000 0.000000 
0.437798 71.140755 -0.161327 8.264965 -11.001294 2.974827 0.000000 -0.000001 -0.000000 -54.219380 4.487162 20.463914 49.111618 3.430594 5.960721 -0.539922 1.141765 -18.279842 -0.000000 0.000000 0.000000 -0.000000 0.000000 -0.000000 -0.000000 0.000000 0.000001 -35.030794 1.278664 -28.673161 51.844568 -0.771264 -1.383571 -19.046430 -5.459148 24.554267 0.000000 0.000001 -0.000000 0.000000 0.000001 -0.000000 -0.000000 -0.000001 0.000000 8.123232 1.673656 -1.703036 6.441681 1.676749 -0.649059 6.443582 1.672274 -0.634775 -1.530194 -0.088174 0.425715 -18.010336 -0.506130 1.446723 -0.000000 -0.000000 -0.000000 -0.000000 -0.000000 -0.000000 -0.000000 -0.000000 -0.000000 2.608810 -14.838622 -9.394288 -25.202297 -5.748879 -46.782267 -0.000025 -124.946303 -0.000020 -66.856426 19.194315 22.657821 39.578726 -17.197330 -21.086438 11.236027 23.988453 2.901719 -0.000003 -0.000001 -0.000004 3.600025 6.051872 -61.463486 4.128145 6.308925 -66.366175 -0.000002 -0.000001 -0.000007 2.451414 5.271009 -49.859937 3.793770 6.152666 -63.285937 0.000002 0.000002 0.000002 2.452892 5.272241 -49.876053 3.792021 6.151804 -63.269791 0.000001 0.000000 -0.000006 7.187303 7.991493 -61.391789 4.144312 2.228365 -66.583198 -0.000001 0.000002 0.000000 -0.000001 -0.000001 0.000000 1.632838 9.221984 9.735139 4.785613 4.318989 40.998402 0.001382 89.635011 -0.002144 33.108399 19.043998 -23.106216 29.376446 16.962626 20.541348 9.559550 -25.704464 -5.659316 0.000002 0.000001 0.000001 2.155496 -5.036568 46.317155 4.033409 -6.310001 65.142902 -0.000002 0.000001 -0.000001 1.448242 -4.252518 37.599696 3.476838 -6.022591 59.964785 0.000000 0.000001 -0.000000 1.448245 -4.252500 37.599710 3.476822 -6.022598 59.964799 -0.000003 -0.000001 0.000000 2.155512 -5.036548 46.317149 4.033390 -6.309993 65.142902 -0.000003 -0.000003 -0.000002 -0.000001 0.000002 -0.000003 -0.000001 0.000001 -0.000000 -0.000001 0.000001 -0.000000 -0.000001 0.000001 -0.000000 -0.000001 0.000001 -0.000000 -0.000001 0.000001 -0.000000 -0.000001 0.000000 -0.000000 -0.000001 0.000001 -0.000000 -0.000001 0.000001 -0.000000 -0.000001 0.000000 -0.000000 0.000002 0.000001 -0.000000 0.000002 0.000001 -0.000000 0.000000 -0.000001 -0.000000 
